<svg width="741" height="75" viewBox="0 0 741 75" fill="none" xmlns="http://www.w3.org/2000/svg">
<path d="M-0.000390381 1.60009H17.9996V58.4001H49.7996V73.1001H-0.000390381V1.60009ZM113.378 47.3001C113.378 65.1001 105.078 74.7001 83.4777 74.7001C61.8777 74.7001 53.5777 65.1001 53.5777 47.3001V1.60009H71.5777V47.3001C71.5777 56.6001 75.5777 60.0001 83.4777 60.0001C91.3777 60.0001 95.3777 56.6001 95.3777 47.3001V1.60009H113.378V47.3001ZM121.632 73.1001V1.60009H143.632L158.332 47.2001H158.532L173.232 1.60009H195.232V73.1001H178.232V28.6001H178.032L164.732 73.1001H152.132L138.832 28.6001H138.632V73.1001H121.632ZM204.131 1.60009H222.131V73.1001H204.131V1.60009ZM230.961 73.1001V1.60009H248.961L273.961 44.1001H274.161V1.60009H292.161V73.1001H274.161L249.161 30.6001H248.961V73.1001H230.961ZM342.08 58.2001H317.58L312.98 73.1001H294.98L320.88 1.60009H338.88L364.68 73.1001H346.68L342.08 58.2001ZM321.68 44.5001H338.08L329.98 18.1001H329.78L321.68 44.5001ZM414.799 28.7001C428.299 32.4001 442.199 36.8001 442.199 52.1001C442.199 65.8001 431.799 74.7001 413.899 74.7001C395.299 74.7001 381.299 65.5001 381.299 49.6001H399.299C399.299 57.2001 405.899 60.0001 413.899 60.0001C420.599 60.0001 424.199 57.4001 424.199 53.8001C424.199 48.1001 416.499 46.8001 406.399 43.8001C394.099 40.2001 383.299 34.9001 383.299 21.7001C383.299 6.1001 395.499 9.70364e-05 410.899 9.70364e-05C427.599 9.70364e-05 440.699 8.8001 441.199 23.3001H423.199C422.399 17.9001 417.799 14.7001 410.899 14.7001C405.499 14.7001 401.299 16.4001 401.299 20.4001C401.299 24.8001 405.799 26.2001 414.799 28.7001ZM463.506 73.1001V16.3001H442.706V1.60009H502.206V16.3001H481.506V73.1001H463.506ZM567.096 47.3001C567.096 65.1001 558.796 74.7001 537.196 74.7001C515.596 74.7001 507.296 65.1001 507.296 47.3001V1.60009H525.296V47.3001C525.296 56.6001 529.296 60.0001 537.196 60.0001C545.096 60.0001 549.096 56.6001 549.096 47.3001V1.60009H567.096V47.3001ZM575.351 73.1001V1.60009H607.051C626.951 1.60009 638.951 14.4001 638.951 37.4001C638.951 60.4001 627.951 73.1001 608.051 73.1001H575.351ZM593.351 16.3001V58.4001H605.251C616.451 58.4001 620.951 50.4001 620.951 37.4001C620.951 24.4001 616.451 16.3001 605.251 16.3001H593.351ZM644.959 1.60009H662.959V73.1001H644.959V1.60009ZM704.777 74.7001C682.077 74.7001 669.377 58.9001 669.377 37.3001C669.377 15.8001 682.077 9.70364e-05 704.777 9.70364e-05C727.277 9.70364e-05 740.177 15.8001 740.177 37.3001C740.177 58.9001 727.277 74.7001 704.777 74.7001ZM704.777 60.0001C717.777 60.0001 722.177 49.8001 722.177 37.3001C722.177 24.9001 717.777 14.7001 704.777 14.7001C691.677 14.7001 687.377 24.9001 687.377 37.3001C687.377 49.8001 691.677 60.0001 704.777 60.0001Z" fill="black"/>
</svg>
