<svg width="365" height="174" viewBox="0 0 365 174" fill="none" xmlns="http://www.w3.org/2000/svg">
<path d="M-0.000390381 -3.33786e-06H17.9996V56.8H49.7996V71.5H-0.000390381V-3.33786e-06ZM113.378 45.7C113.378 63.5 105.078 73.1 83.4777 73.1C61.8777 73.1 53.5777 63.5 53.5777 45.7V-3.33786e-06H71.5777V45.7C71.5777 55 75.5777 58.4 83.4777 58.4C91.3777 58.4 95.3777 55 95.3777 45.7V-3.33786e-06H113.378V45.7ZM121.632 71.5V-3.33786e-06H143.632L158.332 45.6H158.532L173.232 -3.33786e-06H195.232V71.5H178.232V27H178.032L164.732 71.5H152.132L138.832 27H138.632V71.5H121.632ZM204.131 -3.33786e-06H222.131V71.5H204.131V-3.33786e-06ZM230.961 71.5V-3.33786e-06H248.961L273.961 42.5H274.161V-3.33786e-06H292.161V71.5H274.161L249.161 29H248.961V71.5H230.961ZM342.08 56.6H317.58L312.98 71.5H294.98L320.88 -3.33786e-06H338.88L364.68 71.5H346.68L342.08 56.6ZM321.68 42.9H338.08L329.98 16.5H329.78L321.68 42.9ZM33.7617 127.1C47.2617 130.8 61.1617 135.2 61.1617 150.5C61.1617 164.2 50.7617 173.1 32.8617 173.1C14.2617 173.1 0.261719 163.9 0.261719 148H18.2617C18.2617 155.6 24.8617 158.4 32.8617 158.4C39.5617 158.4 43.1617 155.8 43.1617 152.2C43.1617 146.5 35.4617 145.2 25.3617 142.2C13.0617 138.6 2.26172 133.3 2.26172 120.1C2.26172 104.5 14.4617 98.4 29.8617 98.4C46.5617 98.4 59.6617 107.2 60.1617 121.7H42.1617C41.3617 116.3 36.7617 113.1 29.8617 113.1C24.4617 113.1 20.2617 114.8 20.2617 118.8C20.2617 123.2 24.7617 124.6 33.7617 127.1ZM82.4688 171.5V114.7H61.6688V100H121.169V114.7H100.469V171.5H82.4688ZM186.059 145.7C186.059 163.5 177.759 173.1 156.159 173.1C134.559 173.1 126.259 163.5 126.259 145.7V100H144.259V145.7C144.259 155 148.259 158.4 156.159 158.4C164.059 158.4 168.059 155 168.059 145.7V100H186.059V145.7ZM194.314 171.5V100H226.014C245.914 100 257.914 112.8 257.914 135.8C257.914 158.8 246.914 171.5 227.014 171.5H194.314ZM212.314 114.7V156.8H224.214C235.414 156.8 239.914 148.8 239.914 135.8C239.914 122.8 235.414 114.7 224.214 114.7H212.314ZM263.922 100H281.922V171.5H263.922V100ZM323.74 173.1C301.04 173.1 288.34 157.3 288.34 135.7C288.34 114.2 301.04 98.4 323.74 98.4C346.24 98.4 359.14 114.2 359.14 135.7C359.14 157.3 346.24 173.1 323.74 173.1ZM323.74 158.4C336.74 158.4 341.14 148.2 341.14 135.7C341.14 123.3 336.74 113.1 323.74 113.1C310.64 113.1 306.34 123.3 306.34 135.7C306.34 148.2 310.64 158.4 323.74 158.4Z" fill="black"/>
</svg>
